<svg xmlns="http://www.w3.org/2000/svg" fill="none" viewBox="0 0 392 151" height="151" width="392">
<rect fill="white" height="151" width="392"></rect>
<g clip-path="url(#clip0_1903_304)">
<path fill="#231F20" d="M58.8122 56.3645C58.8122 57.4403 59.6703 58.0858 60.7429 58.0858C61.8155 58.0858 62.6736 57.2252 62.6736 56.3645L63.5317 40.0123C63.5317 39.1516 63.3172 38.5061 62.6736 37.8606C62.0301 37.2152 61.3865 37 60.7429 37C60.0993 37 59.2412 37.2152 58.8122 37.8606C58.3832 38.5061 57.9541 39.3668 57.9541 40.0123L58.8122 56.3645Z"></path>
<path fill="#231F20" d="M69.1091 65.1862C68.251 64.7558 66.9639 65.1862 66.5349 65.8316C65.4622 67.7681 63.317 69.2742 60.7427 69.2742C58.1684 69.2742 56.0232 67.9833 54.9506 65.8316C54.5215 64.971 53.2344 64.5407 52.3763 65.1862C51.5182 65.6165 51.0891 66.9074 51.7327 67.7681C53.4489 70.9955 56.8813 72.932 60.7427 72.932C64.6041 72.932 68.0365 70.7804 69.7527 67.7681C70.1818 66.9074 69.7527 65.6165 69.1091 65.1862Z"></path>
<path fill="#231F20" d="M53.0196 58.0858C53.2341 58.9465 54.3068 59.5919 55.3794 59.3768C56.2375 59.1616 56.881 58.0858 56.6665 57.2252L53.6632 42.8093C53.6632 42.1639 53.0196 41.3032 52.376 41.0881C51.7325 40.6577 51.0889 40.6577 50.2308 40.8729C49.5872 40.8729 48.9437 41.5184 48.5146 42.1639C48.0856 42.8093 48.0856 43.67 48.3001 44.3155L52.8051 58.301L53.0196 58.0858Z"></path>
<path fill="#231F20" d="M47.8716 61.3132C48.5152 62.1739 49.5878 62.389 50.4459 61.9587C51.304 61.5284 51.733 60.4526 51.0895 59.3768L45.2973 47.9732C44.8683 47.3277 44.4392 46.8974 43.5811 46.6823C42.9376 46.6823 42.0795 46.6823 41.6504 46.8974C41.0069 47.3277 40.5778 47.7581 40.3633 48.4035C40.3633 49.2642 40.3633 49.9097 40.7923 50.5552L47.8716 61.3132Z"></path>
<path fill="#231F20" d="M66.1062 59.1617C66.9643 59.3768 68.0369 58.9465 68.4659 57.8707L72.9709 43.8852C73.1854 43.2397 72.9709 42.3791 72.7564 41.7336C72.3273 41.0881 71.6838 40.6578 71.0402 40.4426C70.3966 40.4426 69.5385 40.4426 68.895 40.6578C68.2514 41.0881 67.8223 41.7336 67.6078 42.3791L64.6045 56.7949C64.6045 57.8707 65.0335 58.7313 65.8916 58.9465"></path>
<path fill="#231F20" d="M70.826 61.9588C71.6841 62.3891 72.7568 62.174 73.4003 61.3133L80.4796 50.5553C80.9087 49.9098 81.1232 49.2643 80.9087 48.4036C80.9087 47.7582 80.2651 47.1127 79.6215 46.8975C78.9779 46.4672 78.3344 46.4672 77.6908 46.6823C76.8327 46.6823 76.4037 47.3278 75.9746 47.9733L70.1825 59.3769C69.7534 60.2375 70.1825 61.3133 70.826 61.9588Z"></path>
<path fill="#231F20" d="M85.8417 106.282L75.7591 92.942C74.0429 90.5752 72.9703 87.5629 72.9703 84.3355C72.9703 81.1081 74.0429 78.0958 75.7591 75.729L85.8417 62.389C86.9144 60.6678 86.2708 58.301 84.5546 57.2252C82.8384 56.1494 80.4787 56.7948 79.406 58.5161L73.1848 69.4894C70.6106 74.0078 65.6765 76.5897 60.7425 76.5897C55.8084 76.5897 51.0889 74.0078 48.3001 69.4894L42.0789 58.5161C41.0063 56.7948 38.6465 56.1494 36.9304 57.2252C35.2142 58.301 34.5706 60.6678 35.6432 62.389L45.7258 75.729C47.442 78.0958 48.5146 81.1081 48.5146 84.3355C48.5146 87.5629 47.442 90.5752 45.7258 92.942L35.4287 106.282C34.3561 108.003 34.9996 110.37 36.7158 111.446C38.432 112.522 40.7918 111.876 41.8644 110.155L48.0856 99.1816C50.6599 94.6633 55.5939 92.0813 60.528 92.0813C65.462 92.0813 70.1815 94.6633 72.9703 99.1816L79.1915 110.155C80.2641 111.876 82.6239 112.522 84.3401 111.446C86.0563 110.37 86.6998 108.003 85.6272 106.282"></path>
<path fill="#231F20" d="M353.353 78.9565C353.782 78.9565 353.997 78.9565 353.997 78.3111C353.997 77.6656 353.782 77.6656 353.353 77.6656H352.066V79.1717H353.353V78.9565ZM354.855 81.3233H353.782L352.924 79.602H351.851V81.1082H350.993V76.3746H353.138C354.211 76.3746 354.64 77.0201 354.64 77.8807C354.64 78.7414 354.211 79.1717 353.567 79.3869L354.64 81.1082L354.855 81.3233ZM352.709 75.7291C350.779 75.7291 349.277 77.2353 349.277 79.1717C349.277 81.1082 350.779 82.6143 352.709 82.6143C354.64 82.6143 356.142 81.1082 356.142 79.1717C356.142 77.2353 354.64 75.7291 352.709 75.7291ZM352.709 83.2598C350.35 83.2598 348.419 81.3233 348.419 78.9565C348.419 76.5898 350.35 74.6533 352.709 74.6533C355.069 74.6533 357 76.5898 357 78.9565C357 81.3233 355.069 83.2598 352.709 83.2598Z"></path>
<path fill="#231F20" d="M309.805 85.8417C306.801 85.4114 304.871 84.981 304.871 83.6901C304.871 82.3991 306.158 81.7536 308.947 81.7536C311.735 81.7536 311.95 82.1839 312.593 83.0446C313.023 83.4749 313.881 83.6901 314.524 83.4749L318.171 82.3991C318.815 82.3991 319.029 81.5385 318.815 81.1081C317.098 78.0959 313.452 76.1594 308.947 76.1594C301.867 76.1594 298.435 80.2475 298.435 84.1204C298.435 89.7146 304.442 90.7904 308.732 91.4359C313.023 92.0814 313.881 92.7268 313.881 94.0178C313.881 95.3088 311.95 96.1694 309.376 96.1694C306.801 96.1694 305.943 95.7391 304.656 94.233C304.227 93.5875 303.369 93.3723 302.725 93.5875L299.079 94.6633C298.435 94.6633 298.22 95.5239 298.435 95.9543C300.151 99.8272 304.227 101.979 309.376 101.979C314.524 101.979 320.316 98.5362 320.316 93.5875C320.316 88.6388 315.811 86.9175 309.805 85.8417Z"></path>
<path fill="#231F20" d="M252.527 81.9688H239.226V74.0078H255.744C256.388 74.0078 256.817 73.5775 256.817 72.932V69.0591C256.817 68.4136 256.388 67.9833 255.744 67.9833H234.078C233.434 67.9833 233.005 68.4136 233.005 69.0591V100.257C233.005 100.903 233.434 101.333 234.078 101.333H238.368C239.012 101.333 239.441 100.903 239.441 100.257V87.7781H252.741C253.385 87.7781 253.814 87.3478 253.814 86.7023V82.8294C253.814 82.1839 253.385 81.7536 252.741 81.7536"></path>
<path fill="#231F20" d="M265.183 67.9833H260.893C260.301 67.9833 259.82 68.4649 259.82 69.0591V100.257C259.82 100.852 260.301 101.333 260.893 101.333H265.183C265.776 101.333 266.256 100.852 266.256 100.257V69.0591C266.256 68.4649 265.776 67.9833 265.183 67.9833Z"></path>
<path fill="#231F20" d="M282.131 96.1694C278.699 96.1694 275.696 93.1571 275.696 89.2842C275.696 85.4113 278.485 82.1839 282.131 82.1839C285.778 82.1839 288.567 85.4113 288.567 89.2842C288.567 93.1571 285.778 96.1694 282.131 96.1694ZM293.716 76.5897H289.854C289.211 76.5897 288.782 77.02 288.782 77.6655V79.1716C286.851 77.2352 284.277 75.9442 281.273 75.9442C274.838 75.9442 269.475 81.5384 269.475 88.8539C269.475 96.1694 274.838 101.764 281.273 101.764C287.709 101.764 286.851 100.688 288.782 98.5362V100.042C288.782 100.688 289.211 101.118 289.854 101.118H293.716C294.359 101.118 294.788 100.688 294.788 100.042V77.4503C294.788 76.8049 294.359 76.3745 293.716 76.3745"></path>
<path fill="#231F20" d="M337.478 86.272L345.201 78.0959C345.844 77.4504 345.201 76.5897 344.557 76.5897H338.765C338.121 76.5897 337.692 76.8049 337.263 77.2352L329.755 85.6265V69.0591C329.755 68.4136 329.326 67.9833 328.682 67.9833H324.392C323.748 67.9833 323.319 68.4136 323.319 69.0591V100.257C323.319 100.903 323.748 101.333 324.392 101.333H328.682C329.326 101.333 329.755 100.903 329.755 100.257V94.233L332.973 91.0055L338.551 100.473C338.98 101.118 339.623 101.333 340.267 101.333H345.415C346.273 101.333 346.702 100.473 346.273 99.8272L337.478 86.272Z"></path>
<path fill="#231F20" d="M122.74 69.0591C122.74 68.4136 122.311 67.9833 121.667 67.9833H117.377C116.733 67.9833 116.304 68.4136 116.304 69.0591V81.7536H102.146V69.0591C102.146 68.4136 101.717 67.9833 101.073 67.9833H96.7826C96.139 67.9833 95.71 68.4136 95.71 69.0591V100.257C95.71 100.903 96.139 101.333 96.7826 101.333H101.073C101.717 101.333 102.146 100.903 102.146 100.257V87.563H116.304V100.257C116.304 100.903 116.733 101.333 117.377 101.333H121.667C122.311 101.333 122.74 100.903 122.74 100.257V69.0591Z"></path>
<path fill="#231F20" d="M164.143 96.1694C160.711 96.1694 157.707 93.1572 157.707 89.2843C157.707 85.4114 160.496 82.1839 164.143 82.1839C167.79 82.1839 170.579 85.4114 170.579 89.2843C170.579 93.1572 167.79 96.1694 164.143 96.1694ZM176.8 69.0591C176.8 68.4136 176.371 67.9833 175.727 67.9833H171.437C170.793 67.9833 170.364 68.4136 170.364 69.0591V78.9565C168.433 77.0201 165.859 76.1594 163.07 76.1594C156.635 76.1594 151.271 81.7536 151.271 89.0691C151.271 96.3846 156.635 101.979 163.07 101.979C169.506 101.979 168.648 100.903 170.579 98.7514V100.257C170.579 100.903 171.008 101.333 171.651 101.333H175.513C176.156 101.333 176.585 100.903 176.585 100.257V69.0591H176.8Z"></path>
<path fill="#231F20" d="M193.748 76.1594C191.174 76.1594 188.599 77.02 186.669 79.1716V77.8807C186.669 77.2352 186.24 76.8049 185.596 76.8049H181.735C181.091 76.8049 180.662 77.2352 180.662 77.8807V100.473C180.662 101.118 181.091 101.548 181.735 101.548H186.025C186.669 101.548 187.098 101.118 187.098 100.473V89.2842C187.098 87.3478 187.312 85.1962 188.599 83.9052C189.887 82.6142 191.603 82.1839 193.534 82.1839C194.177 82.1839 194.606 81.7536 194.606 81.1081V77.02C194.606 76.3745 194.177 75.9442 193.534 75.9442"></path>
<path fill="#231F20" d="M207.691 96.1694C204.259 96.1694 201.685 93.3723 201.685 89.0691C201.685 84.7658 204.474 81.7536 207.691 81.7536C210.909 81.7536 213.698 84.7658 213.698 89.0691C213.698 93.3723 210.909 96.1694 207.691 96.1694ZM207.691 75.9442C200.827 75.9442 195.249 81.5384 195.249 89.0691C195.249 96.5997 200.827 101.979 207.691 101.979C214.556 101.979 220.134 96.3845 220.134 89.0691C220.134 81.7536 214.556 75.9442 207.691 75.9442Z"></path>
<path fill="#231F20" d="M149.985 76.5897H146.123C145.48 76.5897 145.051 77.02 144.836 77.4503L138.829 93.3723L132.823 77.4503C132.823 76.8048 132.179 76.5897 131.536 76.5897H127.674C127.031 76.5897 126.387 77.2352 126.602 78.0958L135.612 101.764L134.754 103.7C133.895 106.067 132.608 107.143 130.034 107.143C129.39 107.143 128.961 107.573 128.961 108.218V111.876C128.961 112.522 129.39 112.952 130.034 112.952C134.754 112.952 137.971 112.091 140.331 105.852L151.057 77.8806C151.272 77.2352 150.843 76.3745 149.985 76.3745"></path>
</g>
<defs>
<clipPath id="clip0_1903_304">
<rect transform="translate(35 37)" fill="white" height="76.1671" width="322"></rect>
</clipPath>
</defs>
</svg>
